<?xml version="1.0" encoding="UTF-8"?>
<svg xmlns="http://www.w3.org/2000/svg" xmlns:xlink="http://www.w3.org/1999/xlink" width="24" height="24" viewBox="0 0 24 24" version="1.1">
<g id="surface1">
<path style=" stroke:none;fill-rule:nonzero;fill:rgb(92.941176%,78.823529%,17.254902%);fill-opacity:1;" d="M 24 12 C 24 18.628906 18.628906 24 12 24 C 5.371094 24 0 18.628906 0 12 C 0 5.371094 5.371094 0 12 0 C 18.628906 0 24 5.371094 24 12 Z M 24 12 "/>
<path style=" stroke:none;fill-rule:nonzero;fill:rgb(29.411765%,29.019608%,29.411765%);fill-opacity:1;" d="M 20.941406 11.574219 C 16.707031 6.40625 12.296875 6.617188 12.085938 6.632812 C 11.871094 6.617188 7.464844 6.40625 3.226562 11.574219 C 3.269531 11.53125 2.929688 11.917969 2.941406 12.40625 C 2.929688 12.890625 3.269531 13.28125 3.226562 13.238281 C 7.464844 18.402344 11.871094 18.191406 12.085938 18.175781 C 12.296875 18.191406 16.707031 18.402344 20.941406 13.238281 C 20.898438 13.28125 21.238281 12.890625 21.226562 12.40625 C 21.238281 11.917969 20.898438 11.53125 20.941406 11.574219 Z M 20.941406 11.574219 "/>
<path style=" stroke:none;fill-rule:nonzero;fill:rgb(100%,100%,100%);fill-opacity:1;" d="M 20.070312 11.65625 C 16.25 6.996094 12.277344 7.1875 12.085938 7.199219 C 11.890625 7.1875 7.917969 6.996094 4.097656 11.65625 C 4.136719 11.617188 3.832031 11.964844 3.84375 12.40625 C 3.832031 12.84375 4.136719 13.195312 4.097656 13.15625 C 7.917969 17.8125 11.890625 17.621094 12.085938 17.609375 C 12.277344 17.621094 16.25 17.8125 20.070312 13.15625 C 20.03125 13.195312 20.339844 12.84375 20.328125 12.40625 C 20.339844 11.964844 20.03125 11.617188 20.070312 11.65625 Z M 20.070312 11.65625 "/>
<path style=" stroke:none;fill-rule:nonzero;fill:rgb(12.156863%,57.254902%,81.568627%);fill-opacity:1;" d="M 16.328125 12.433594 C 16.328125 14.734375 14.460938 16.601562 12.160156 16.601562 C 9.855469 16.601562 7.992188 14.734375 7.992188 12.433594 C 7.992188 10.132812 9.855469 8.265625 12.160156 8.265625 C 14.460938 8.265625 16.328125 10.132812 16.328125 12.433594 Z M 16.328125 12.433594 "/>
<path style=" stroke:none;fill-rule:nonzero;fill:rgb(21.176471%,64.705882%,86.666667%);fill-opacity:1;" d="M 15.949219 12.433594 C 15.949219 14.527344 14.253906 16.222656 12.160156 16.222656 C 10.066406 16.222656 8.371094 14.527344 8.371094 12.433594 C 8.371094 10.339844 10.066406 8.644531 12.160156 8.644531 C 14.253906 8.644531 15.949219 10.339844 15.949219 12.433594 Z M 15.949219 12.433594 "/>
<path style=" stroke:none;fill-rule:nonzero;fill:rgb(29.411765%,29.019608%,29.411765%);fill-opacity:1;" d="M 14.90625 12.433594 C 14.90625 13.953125 13.675781 15.179688 12.160156 15.179688 C 10.640625 15.179688 9.410156 13.953125 9.410156 12.433594 C 9.410156 10.917969 10.640625 9.6875 12.160156 9.6875 C 13.675781 9.6875 14.90625 10.917969 14.90625 12.433594 Z M 14.90625 12.433594 "/>
<path style=" stroke:none;fill-rule:nonzero;fill:rgb(100%,100%,100%);fill-opacity:1;" d="M 14.402344 11.25 C 14.402344 11.886719 13.886719 12.40625 13.25 12.40625 C 12.609375 12.40625 12.09375 11.886719 12.09375 11.25 C 12.09375 10.613281 12.609375 10.09375 13.25 10.09375 C 13.886719 10.09375 14.402344 10.613281 14.402344 11.25 Z M 14.402344 11.25 "/>
</g>
</svg>
